<svg width="166" height="35" viewBox="0 0 166 35" fill="none" xmlns="http://www.w3.org/2000/svg">
<path d="M5.88 19.984C6.31867 19.984 6.72467 19.8813 7.098 19.676C7.47133 19.4707 7.812 19.1673 8.12 18.766L9.702 20.264C9.27267 20.824 8.70333 21.2767 7.994 21.622C7.28467 21.9673 6.552 22.14 5.796 22.14C5.068 22.14 4.38667 22.0093 3.752 21.748C3.11733 21.4867 2.57133 21.132 2.114 20.684C1.65667 20.236 1.29267 19.704 1.022 19.088C0.760667 18.472 0.63 17.8093 0.63 17.1C0.63 16.3907 0.760667 15.728 1.022 15.112C1.29267 14.4867 1.65667 13.95 2.114 13.502C2.58067 13.054 3.12667 12.6993 3.752 12.438C4.38667 12.1767 5.068 12.046 5.796 12.046C6.58 12.046 7.33133 12.2187 8.05 12.564C8.76867 12.9093 9.34267 13.3713 9.772 13.95L8.148 15.49C7.83067 15.0607 7.47133 14.7387 7.07 14.524C6.678 14.3 6.25333 14.188 5.796 14.188C5.41333 14.188 5.05867 14.2627 4.732 14.412C4.40533 14.5613 4.12067 14.7667 3.878 15.028C3.64467 15.28 3.458 15.588 3.318 15.952C3.18733 16.3067 3.122 16.6893 3.122 17.1C3.122 17.5107 3.192 17.8933 3.332 18.248C3.472 18.6027 3.66333 18.9107 3.906 19.172C4.158 19.424 4.452 19.6247 4.788 19.774C5.124 19.914 5.488 19.984 5.88 19.984ZM11.3082 22V12.2H13.7162V16.008H17.6782V12.2H20.0862V22H17.6782V18.122H13.7162V22H11.3082ZM21.3419 22L25.1639 12.2H27.9079L31.6739 22H29.0699L28.2579 19.662H24.6739L23.8479 22H21.3419ZM25.3319 17.8H27.6139L26.4799 14.552L25.3319 17.8ZM33.0765 22V12.2H37.8365C38.3405 12.2 38.8025 12.2793 39.2225 12.438C39.6519 12.5873 40.0159 12.802 40.3145 13.082C40.6225 13.3527 40.8605 13.6793 41.0285 14.062C41.2059 14.4447 41.2945 14.8647 41.2945 15.322C41.2945 15.938 41.1265 16.4887 40.7905 16.974C40.4639 17.4593 40.0252 17.8233 39.4745 18.066L41.5325 22H38.8445L37.0665 18.402H35.4845V22H33.0765ZM37.6125 14.188H35.4845V16.512H37.6125C37.9859 16.512 38.2845 16.4047 38.5085 16.19C38.7419 15.9753 38.8585 15.6953 38.8585 15.35C38.8585 15.0047 38.7419 14.7247 38.5085 14.51C38.2845 14.2953 37.9859 14.188 37.6125 14.188ZM43.2003 22V12.2H45.6083V19.942H50.4663V22H43.2003ZM52.5584 22V12.2H59.9644V14.216H54.9664V16.078H58.4944V18.038H54.9664V19.984H60.0204V22H52.5584ZM61.364 20.656L62.596 18.878C63.268 19.354 63.8466 19.69 64.332 19.886C64.8173 20.082 65.298 20.18 65.774 20.18C66.2873 20.18 66.6933 20.0867 66.992 19.9C67.2906 19.704 67.44 19.4567 67.44 19.158C67.44 18.8687 67.342 18.6493 67.146 18.5C66.9593 18.3507 66.628 18.2293 66.152 18.136L64.066 17.772C63.2913 17.6227 62.694 17.3193 62.274 16.862C61.8633 16.4047 61.658 15.8353 61.658 15.154C61.658 14.2113 62.0033 13.46 62.694 12.9C63.3846 12.34 64.3366 12.06 65.55 12.06C66.306 12.06 67.0386 12.1767 67.748 12.41C68.4573 12.634 69.064 12.9467 69.568 13.348L68.35 15.098C67.874 14.734 67.3933 14.4633 66.908 14.286C66.432 14.1087 65.9373 14.02 65.424 14.02C64.948 14.02 64.5793 14.1087 64.318 14.286C64.0566 14.4633 63.926 14.6827 63.926 14.944C63.926 15.1867 64.01 15.378 64.178 15.518C64.3553 15.658 64.64 15.7607 65.032 15.826L66.992 16.162C67.9066 16.3207 68.602 16.638 69.078 17.114C69.554 17.5807 69.792 18.1873 69.792 18.934C69.792 19.8767 69.414 20.6467 68.658 21.244C67.902 21.8413 66.8846 22.14 65.606 22.14C64.8313 22.14 64.0893 22.014 63.38 21.762C62.68 21.5007 62.008 21.132 61.364 20.656ZM74.1056 20.656L75.3376 18.878C76.0096 19.354 76.5883 19.69 77.0736 19.886C77.5589 20.082 78.0396 20.18 78.5156 20.18C79.0289 20.18 79.4349 20.0867 79.7336 19.9C80.0323 19.704 80.1816 19.4567 80.1816 19.158C80.1816 18.8687 80.0836 18.6493 79.8876 18.5C79.7009 18.3507 79.3696 18.2293 78.8936 18.136L76.8076 17.772C76.0329 17.6227 75.4356 17.3193 75.0156 16.862C74.6049 16.4047 74.3996 15.8353 74.3996 15.154C74.3996 14.2113 74.7449 13.46 75.4356 12.9C76.1263 12.34 77.0783 12.06 78.2916 12.06C79.0476 12.06 79.7803 12.1767 80.4896 12.41C81.1989 12.634 81.8056 12.9467 82.3096 13.348L81.0916 15.098C80.6156 14.734 80.1349 14.4633 79.6496 14.286C79.1736 14.1087 78.6789 14.02 78.1656 14.02C77.6896 14.02 77.3209 14.1087 77.0596 14.286C76.7983 14.4633 76.6676 14.6827 76.6676 14.944C76.6676 15.1867 76.7516 15.378 76.9196 15.518C77.0969 15.658 77.3816 15.7607 77.7736 15.826L79.7336 16.162C80.6483 16.3207 81.3436 16.638 81.8196 17.114C82.2956 17.5807 82.5336 18.1873 82.5336 18.934C82.5336 19.8767 82.1556 20.6467 81.3996 21.244C80.6436 21.8413 79.6263 22.14 78.3476 22.14C77.5729 22.14 76.8309 22.014 76.1216 21.762C75.4216 21.5007 74.7496 21.132 74.1056 20.656ZM84.3854 22V12.2H91.7914V14.216H86.7934V16.078H90.3214V18.038H86.7934V19.984H91.8474V22H84.3854ZM96.719 22L92.953 12.2H95.557L98.147 19.494L100.779 12.2H103.285L99.463 22H96.719ZM104.688 22V12.2H112.094V14.216H107.096V16.078H110.624V18.038H107.096V19.984H112.15V22H104.688ZM114.319 22V12.2H119.079C119.583 12.2 120.045 12.2793 120.465 12.438C120.895 12.5873 121.259 12.802 121.557 13.082C121.865 13.3527 122.103 13.6793 122.271 14.062C122.449 14.4447 122.537 14.8647 122.537 15.322C122.537 15.938 122.369 16.4887 122.033 16.974C121.707 17.4593 121.268 17.8233 120.717 18.066L122.775 22H120.087L118.309 18.402H116.727V22H114.319ZM118.855 14.188H116.727V16.512H118.855C119.229 16.512 119.527 16.4047 119.751 16.19C119.985 15.9753 120.101 15.6953 120.101 15.35C120.101 15.0047 119.985 14.7247 119.751 14.51C119.527 14.2953 119.229 14.188 118.855 14.188ZM123.516 22L127.338 12.2H130.082L133.848 22H131.244L130.432 19.662H126.848L126.022 22H123.516ZM127.506 17.8H129.788L128.654 14.552L127.506 17.8ZM135.25 12.2H137.518L141.872 18.136L141.83 12.2H144.098V22H141.97L137.476 15.868L137.518 22H135.25V12.2ZM151.351 19.984C151.79 19.984 152.196 19.8813 152.569 19.676C152.943 19.4707 153.283 19.1673 153.591 18.766L155.173 20.264C154.744 20.824 154.175 21.2767 153.465 21.622C152.756 21.9673 152.023 22.14 151.267 22.14C150.539 22.14 149.858 22.0093 149.223 21.748C148.589 21.4867 148.043 21.132 147.585 20.684C147.128 20.236 146.764 19.704 146.493 19.088C146.232 18.472 146.101 17.8093 146.101 17.1C146.101 16.3907 146.232 15.728 146.493 15.112C146.764 14.4867 147.128 13.95 147.585 13.502C148.052 13.054 148.598 12.6993 149.223 12.438C149.858 12.1767 150.539 12.046 151.267 12.046C152.051 12.046 152.803 12.2187 153.521 12.564C154.24 12.9093 154.814 13.3713 155.243 13.95L153.619 15.49C153.302 15.0607 152.943 14.7387 152.541 14.524C152.149 14.3 151.725 14.188 151.267 14.188C150.885 14.188 150.53 14.2627 150.203 14.412C149.877 14.5613 149.592 14.7667 149.349 15.028C149.116 15.28 148.929 15.588 148.789 15.952C148.659 16.3067 148.593 16.6893 148.593 17.1C148.593 17.5107 148.663 17.8933 148.803 18.248C148.943 18.6027 149.135 18.9107 149.377 19.172C149.629 19.424 149.923 19.6247 150.259 19.774C150.595 19.914 150.959 19.984 151.351 19.984ZM156.92 22V12.2H164.326V14.216H159.328V16.078H162.856V18.038H159.328V19.984H164.382V22H156.92Z" fill="#F9F9F9"/>
</svg>
