<svg width="220" height="20" viewBox="0 0 220 20" fill="none" xmlns="http://www.w3.org/2000/svg">
<path d="M8.432 4.648C7.04 4.648 5.976 5.168 5.24 6.208C4.504 7.248 4.136 8.672 4.136 10.48C4.136 12.304 4.472 13.72 5.144 14.728C5.832 15.72 6.928 16.216 8.432 16.216C9.136 16.216 9.832 16.136 10.52 15.976C11.224 15.816 11.984 15.592 12.8 15.304V18.352C12.048 18.656 11.304 18.88 10.568 19.024C9.832 19.168 9.008 19.24 8.096 19.24C6.336 19.24 4.88 18.88 3.728 18.16C2.592 17.424 1.752 16.4 1.208 15.088C0.664 13.76 0.392 12.216 0.392 10.456C0.392 8.728 0.704 7.2 1.328 5.872C1.952 4.544 2.856 3.504 4.04 2.752C5.24 2 6.704 1.624 8.432 1.624C9.28 1.624 10.128 1.736 10.976 1.96C11.84 2.168 12.664 2.456 13.448 2.824L12.272 5.776C11.632 5.472 10.984 5.208 10.328 4.984C9.688 4.76 9.056 4.648 8.432 4.648ZM19.9693 4.48C19.9693 5.12 19.9453 5.736 19.8972 6.328C19.8653 6.92 19.8333 7.336 19.8013 7.576H19.9933C20.4093 6.904 20.9453 6.416 21.6013 6.112C22.2573 5.808 22.9853 5.656 23.7852 5.656C25.2093 5.656 26.3453 6.04 27.1932 6.808C28.0573 7.56 28.4893 8.776 28.4893 10.456V19H24.9133V11.344C24.9133 9.456 24.2093 8.512 22.8013 8.512C21.7293 8.512 20.9853 8.888 20.5692 9.64C20.1693 10.376 19.9693 11.44 19.9693 12.832V19H16.3932V0.759999H19.9693V4.48ZM37.7827 5.632C39.5427 5.632 40.8867 6.016 41.8147 6.784C42.7587 7.536 43.2307 8.696 43.2307 10.264V19H40.7347L40.0387 17.224H39.9427C39.3827 17.928 38.7907 18.44 38.1667 18.76C37.5427 19.08 36.6867 19.24 35.5987 19.24C34.4307 19.24 33.4627 18.904 32.6947 18.232C31.9267 17.544 31.5427 16.496 31.5427 15.088C31.5427 13.696 32.0307 12.672 33.0067 12.016C33.9827 11.344 35.4467 10.976 37.3987 10.912L39.6787 10.84V10.264C39.6787 9.576 39.4947 9.072 39.1267 8.752C38.7747 8.432 38.2787 8.272 37.6387 8.272C36.9987 8.272 36.3747 8.368 35.7667 8.56C35.1587 8.736 34.5507 8.96 33.9427 9.232L32.7667 6.808C33.4707 6.44 34.2467 6.152 35.0947 5.944C35.9587 5.736 36.8547 5.632 37.7827 5.632ZM38.2867 12.976C37.1347 13.008 36.3347 13.216 35.8867 13.6C35.4387 13.984 35.2147 14.488 35.2147 15.112C35.2147 15.656 35.3747 16.048 35.6947 16.288C36.0147 16.512 36.4307 16.624 36.9427 16.624C37.7107 16.624 38.3587 16.4 38.8867 15.952C39.4147 15.488 39.6787 14.84 39.6787 14.008V12.928L38.2867 12.976ZM54.4511 5.656C54.6271 5.656 54.8351 5.664 55.0751 5.68C55.3151 5.696 55.5071 5.72 55.6511 5.752L55.3871 9.112C55.2751 9.08 55.1071 9.056 54.8831 9.04C54.6751 9.008 54.4911 8.992 54.3311 8.992C53.7231 8.992 53.1391 9.104 52.5791 9.328C52.0191 9.536 51.5631 9.88 51.2111 10.36C50.8751 10.84 50.7071 11.496 50.7071 12.328V19H47.1311V5.896H49.8431L50.3711 8.104H50.5391C50.9231 7.432 51.4511 6.856 52.1231 6.376C52.7951 5.896 53.5711 5.656 54.4511 5.656ZM61.8455 19H58.2695V0.759999H61.8455V19ZM71.222 5.656C73.03 5.656 74.462 6.176 75.518 7.216C76.574 8.24 77.102 9.704 77.102 11.608V13.336H68.654C68.686 14.344 68.982 15.136 69.542 15.712C70.118 16.288 70.91 16.576 71.918 16.576C72.766 16.576 73.534 16.496 74.222 16.336C74.91 16.16 75.622 15.896 76.358 15.544V18.304C75.718 18.624 75.038 18.856 74.318 19C73.614 19.16 72.758 19.24 71.75 19.24C70.438 19.24 69.278 19 68.27 18.52C67.262 18.024 66.47 17.28 65.894 16.288C65.318 15.296 65.03 14.048 65.03 12.544C65.03 11.008 65.286 9.736 65.798 8.728C66.326 7.704 67.054 6.936 67.982 6.424C68.91 5.912 69.99 5.656 71.222 5.656ZM71.246 8.2C70.558 8.2 69.982 8.424 69.518 8.872C69.07 9.32 68.806 10.016 68.726 10.96H73.742C73.726 10.16 73.518 9.504 73.118 8.992C72.718 8.464 72.094 8.2 71.246 8.2ZM89.3857 15.112C89.3857 16.44 88.9137 17.464 87.9697 18.184C87.0417 18.888 85.6497 19.24 83.7937 19.24C82.8817 19.24 82.0977 19.176 81.4417 19.048C80.7857 18.936 80.1297 18.744 79.4737 18.472V15.52C80.1777 15.84 80.9377 16.104 81.7537 16.312C82.5697 16.52 83.2897 16.624 83.9137 16.624C84.6177 16.624 85.1137 16.52 85.4017 16.312C85.7057 16.104 85.8577 15.832 85.8577 15.496C85.8577 15.272 85.7937 15.072 85.6657 14.896C85.5537 14.72 85.2977 14.52 84.8977 14.296C84.4977 14.072 83.8737 13.784 83.0257 13.432C82.2097 13.08 81.5377 12.736 81.0097 12.4C80.4817 12.048 80.0897 11.632 79.8337 11.152C79.5777 10.656 79.4497 10.04 79.4497 9.304C79.4497 8.088 79.9217 7.176 80.8657 6.568C81.8097 5.96 83.0657 5.656 84.6337 5.656C85.4497 5.656 86.2257 5.736 86.9617 5.896C87.6977 6.056 88.4577 6.32 89.2417 6.688L88.1617 9.256C87.5217 8.984 86.9137 8.76 86.3377 8.584C85.7617 8.392 85.1777 8.296 84.5857 8.296C83.5297 8.296 83.0017 8.584 83.0017 9.16C83.0017 9.368 83.0657 9.56 83.1937 9.736C83.3377 9.896 83.6017 10.072 83.9857 10.264C84.3857 10.456 84.9697 10.712 85.7377 11.032C86.4897 11.336 87.1377 11.656 87.6817 11.992C88.2257 12.312 88.6417 12.72 88.9297 13.216C89.2337 13.696 89.3857 14.328 89.3857 15.112ZM109.278 14.248C109.278 15.768 108.726 16.984 107.622 17.896C106.534 18.792 104.982 19.24 102.966 19.24C101.158 19.24 99.5417 18.896 98.1177 18.208V14.824C98.9337 15.176 99.7737 15.504 100.638 15.808C101.518 16.096 102.39 16.24 103.254 16.24C104.15 16.24 104.782 16.072 105.15 15.736C105.534 15.384 105.726 14.944 105.726 14.416C105.726 13.984 105.574 13.616 105.27 13.312C104.982 13.008 104.59 12.728 104.094 12.472C103.598 12.2 103.03 11.912 102.39 11.608C101.99 11.416 101.558 11.192 101.094 10.936C100.63 10.664 100.182 10.336 99.7497 9.952C99.3337 9.552 98.9897 9.072 98.7177 8.512C98.4457 7.952 98.3097 7.28 98.3097 6.496C98.3097 4.96 98.8297 3.768 99.8697 2.92C100.91 2.056 102.326 1.624 104.118 1.624C105.014 1.624 105.862 1.728 106.662 1.936C107.478 2.144 108.326 2.44 109.206 2.824L108.03 5.656C107.246 5.336 106.542 5.088 105.918 4.912C105.294 4.736 104.654 4.648 103.998 4.648C103.31 4.648 102.782 4.808 102.414 5.128C102.046 5.448 101.862 5.864 101.862 6.376C101.862 6.984 102.134 7.464 102.678 7.816C103.222 8.168 104.03 8.6 105.102 9.112C105.982 9.528 106.726 9.96 107.334 10.408C107.958 10.856 108.438 11.384 108.774 11.992C109.11 12.6 109.278 13.352 109.278 14.248ZM117.745 5.656C119.553 5.656 120.985 6.176 122.041 7.216C123.097 8.24 123.625 9.704 123.625 11.608V13.336H115.177C115.209 14.344 115.505 15.136 116.065 15.712C116.641 16.288 117.433 16.576 118.441 16.576C119.289 16.576 120.057 16.496 120.745 16.336C121.433 16.16 122.145 15.896 122.881 15.544V18.304C122.241 18.624 121.561 18.856 120.841 19C120.137 19.16 119.281 19.24 118.273 19.24C116.961 19.24 115.801 19 114.793 18.52C113.785 18.024 112.993 17.28 112.417 16.288C111.841 15.296 111.553 14.048 111.553 12.544C111.553 11.008 111.809 9.736 112.321 8.728C112.849 7.704 113.577 6.936 114.505 6.424C115.433 5.912 116.513 5.656 117.745 5.656ZM117.769 8.2C117.081 8.2 116.505 8.424 116.041 8.872C115.593 9.32 115.329 10.016 115.249 10.96H120.265C120.249 10.16 120.041 9.504 119.641 8.992C119.241 8.464 118.617 8.2 117.769 8.2ZM129.415 19L124.423 5.896H128.167L130.687 13.36C130.831 13.808 130.943 14.272 131.023 14.752C131.119 15.232 131.175 15.664 131.191 16.048H131.287C131.335 15.184 131.511 14.288 131.815 13.36L134.335 5.896H138.079L133.087 19H129.415ZM145.599 5.656C147.407 5.656 148.839 6.176 149.895 7.216C150.952 8.24 151.48 9.704 151.48 11.608V13.336H143.031C143.063 14.344 143.359 15.136 143.919 15.712C144.495 16.288 145.287 16.576 146.295 16.576C147.143 16.576 147.911 16.496 148.6 16.336C149.287 16.16 149.999 15.896 150.735 15.544V18.304C150.095 18.624 149.415 18.856 148.695 19C147.991 19.16 147.135 19.24 146.127 19.24C144.815 19.24 143.655 19 142.647 18.52C141.639 18.024 140.847 17.28 140.271 16.288C139.695 15.296 139.407 14.048 139.407 12.544C139.407 11.008 139.663 9.736 140.175 8.728C140.703 7.704 141.431 6.936 142.359 6.424C143.287 5.912 144.367 5.656 145.599 5.656ZM145.623 8.2C144.935 8.2 144.359 8.424 143.895 8.872C143.447 9.32 143.183 10.016 143.103 10.96H148.119C148.103 10.16 147.895 9.504 147.496 8.992C147.095 8.464 146.471 8.2 145.623 8.2ZM161.939 5.656C162.115 5.656 162.323 5.664 162.563 5.68C162.803 5.696 162.995 5.72 163.139 5.752L162.875 9.112C162.763 9.08 162.595 9.056 162.371 9.04C162.163 9.008 161.979 8.992 161.819 8.992C161.211 8.992 160.627 9.104 160.067 9.328C159.507 9.536 159.051 9.88 158.699 10.36C158.363 10.84 158.195 11.496 158.195 12.328V19H154.619V5.896H157.331L157.859 8.104H158.027C158.411 7.432 158.939 6.856 159.611 6.376C160.283 5.896 161.059 5.656 161.939 5.656ZM170.665 5.632C172.425 5.632 173.769 6.016 174.697 6.784C175.641 7.536 176.113 8.696 176.113 10.264V19H173.617L172.921 17.224H172.825C172.265 17.928 171.673 18.44 171.049 18.76C170.425 19.08 169.569 19.24 168.481 19.24C167.313 19.24 166.345 18.904 165.577 18.232C164.809 17.544 164.425 16.496 164.425 15.088C164.425 13.696 164.913 12.672 165.889 12.016C166.865 11.344 168.329 10.976 170.281 10.912L172.561 10.84V10.264C172.561 9.576 172.377 9.072 172.009 8.752C171.657 8.432 171.161 8.272 170.521 8.272C169.881 8.272 169.257 8.368 168.649 8.56C168.041 8.736 167.433 8.96 166.825 9.232L165.649 6.808C166.353 6.44 167.129 6.152 167.977 5.944C168.841 5.736 169.737 5.632 170.665 5.632ZM171.169 12.976C170.017 13.008 169.217 13.216 168.769 13.6C168.321 13.984 168.097 14.488 168.097 15.112C168.097 15.656 168.257 16.048 168.577 16.288C168.897 16.512 169.313 16.624 169.825 16.624C170.593 16.624 171.241 16.4 171.769 15.952C172.297 15.488 172.561 14.84 172.561 14.008V12.928L171.169 12.976ZM187.453 5.656C188.861 5.656 189.989 6.04 190.837 6.808C191.685 7.56 192.109 8.776 192.109 10.456V19H188.533V11.344C188.533 10.4 188.365 9.696 188.029 9.232C187.693 8.752 187.157 8.512 186.421 8.512C185.333 8.512 184.589 8.888 184.189 9.64C183.789 10.376 183.589 11.44 183.589 12.832V19H180.013V5.896H182.749L183.229 7.576H183.421C183.837 6.904 184.405 6.416 185.125 6.112C185.861 5.808 186.637 5.656 187.453 5.656ZM201.355 19.24C199.403 19.24 197.891 18.704 196.819 17.632C195.763 16.544 195.235 14.84 195.235 12.52C195.235 10.92 195.507 9.616 196.051 8.608C196.595 7.6 197.347 6.856 198.307 6.376C199.283 5.896 200.403 5.656 201.667 5.656C202.563 5.656 203.339 5.744 203.995 5.92C204.667 6.096 205.251 6.304 205.747 6.544L204.691 9.304C204.131 9.08 203.603 8.896 203.107 8.752C202.627 8.608 202.147 8.536 201.667 8.536C199.811 8.536 198.883 9.856 198.883 12.496C198.883 13.808 199.123 14.776 199.603 15.4C200.099 16.024 200.787 16.336 201.667 16.336C202.419 16.336 203.083 16.24 203.659 16.048C204.235 15.84 204.795 15.56 205.339 15.208V18.256C204.795 18.608 204.219 18.856 203.611 19C203.019 19.16 202.267 19.24 201.355 19.24ZM213.995 5.656C215.803 5.656 217.235 6.176 218.291 7.216C219.347 8.24 219.875 9.704 219.875 11.608V13.336H211.427C211.459 14.344 211.755 15.136 212.315 15.712C212.891 16.288 213.683 16.576 214.691 16.576C215.539 16.576 216.307 16.496 216.995 16.336C217.683 16.16 218.395 15.896 219.131 15.544V18.304C218.491 18.624 217.811 18.856 217.091 19C216.387 19.16 215.531 19.24 214.523 19.24C213.211 19.24 212.051 19 211.043 18.52C210.035 18.024 209.243 17.28 208.667 16.288C208.091 15.296 207.803 14.048 207.803 12.544C207.803 11.008 208.059 9.736 208.571 8.728C209.099 7.704 209.827 6.936 210.755 6.424C211.683 5.912 212.763 5.656 213.995 5.656ZM214.019 8.2C213.331 8.2 212.755 8.424 212.291 8.872C211.843 9.32 211.579 10.016 211.499 10.96H216.515C216.499 10.16 216.291 9.504 215.891 8.992C215.491 8.464 214.867 8.2 214.019 8.2Z" fill="white"/>
</svg>
